<svg width="0" height="0">
  <symbol id="search" xmlns="http://www.w3.org/2000/svg" fill="none">
    <path d="M7.667 14a6.333 6.333 0 1 0 0-12.667 6.333 6.333 0 0 0 0 12.667ZM14.667 14.667l-1.334-1.334"
      stroke="currentColor" stroke-linecap="round" stroke-linejoin="round" stroke-width="1.5" />
  </symbol>
  <symbol id="favorites" xmlns="http://www.w3.org/2000/svg">
    <path stroke="currentColor" stroke-linecap="round" stroke-linejoin="round"
      d="M8.413 13.873c-.226.08-.6.08-.826 0-1.934-.66-6.254-3.413-6.254-8.08 0-2.06 1.66-3.726 3.707-3.726 1.213 0 2.287.586 2.96 1.493a3.686 3.686 0 0 1 2.96-1.493c2.047 0 3.707 1.666 3.707 3.726 0 4.667-4.32 7.42-6.254 8.08Z" />
  </symbol>
  <symbol id="cart" xmlns="http://www.w3.org/2000/svg" fill="none">
    <path stroke="currentColor" stroke-linecap="round" stroke-linejoin="round" stroke-miterlimit="10"
      d="M5.873 1.333 3.46 3.753M10.127 1.333l2.413 2.42" />
    <path stroke="currentColor"
      d="M1.333 5.233c0-1.233.66-1.333 1.48-1.333h10.374c.82 0 1.48.1 1.48 1.333 0 1.434-.66 1.334-1.48 1.334H2.813c-.82 0-1.48.1-1.48-1.334Z" />
    <path stroke="currentColor" stroke-linecap="round"
      d="M6.507 9.333V11.7M9.573 9.333V11.7M2.333 6.667l.94 5.76c.214 1.293.727 2.24 2.634 2.24h4.02c2.073 0 2.38-.907 2.62-2.16l1.12-5.84" />
  </symbol>
  <symbol id="next" xmlns="http://www.w3.org/2000/svg" fill="none">
    <rect width="32" height="32" fill="#ffffff" rx="16" />
    <path fill="#1c1c1c" fill-opacity="1"
      d="m11.864 16 5.661-5.818a.5.5 0 1 0-.716-.697l-6 6.166a.5.5 0 0 0 0 .698l6 6.166a.499.499 0 1 0 .716-.697L11.864 16Z" />
  </symbol>
  <symbol id="prev" xmlns="http://www.w3.org/2000/svg" fill="none">
    <rect width="32" height="32" fill="#ffffff" rx="16" />
    <path fill="#1c1c1c" fill-opacity="1"
      d="m20.136 16-5.661-5.818a.5.5 0 1 1 .716-.697l6 6.166a.5.5 0 0 1 0 .698l-6 6.166a.499.499 0 1 1-.716-.697L20.136 16Z" />
  </symbol>
  <symbol id="phone" xmlns="http://www.w3.org/2000/svg" fill="none">
    <path fill="currentColor"
      d="m4.486 1.544 1.107-.333a1.571 1.571 0 0 1 1.886.86l.776 1.726a1.571 1.571 0 0 1-.362 1.794l-1.181 1.1c-.158.151-.038.737.54 1.74.579 1.002 1.026 1.399 1.233 1.337l1.547-.473a1.571 1.571 0 0 1 1.734.583l1.103 1.528a1.571 1.571 0 0 1-.194 2.06l-.853.808a2.143 2.143 0 0 1-2.1.493c-1.787-.546-3.44-2.17-4.985-4.845C3.189 7.242 2.604 4.98 3.01 3.134a2.143 2.143 0 0 1 1.475-1.59Z" />
  </symbol>
  <symbol id="vk" xmlns="http://www.w3.org/2000/svg" fill="none">
    <path fill="currentColor"
      d="M8 .32a7.68 7.68 0 1 0 0 15.36A7.68 7.68 0 0 0 8 .32Zm2.954 8.665s.679.67.846.981l.009.016c.068.115.084.204.05.27-.056.11-.248.165-.313.17h-1.2a.84.84 0 0 1-.47-.168c-.162-.113-.322-.3-.478-.481-.232-.27-.434-.504-.637-.504a.244.244 0 0 0-.076.012c-.154.05-.35.269-.35.853 0 .182-.145.287-.246.287h-.55c-.187 0-1.162-.066-2.026-.977C4.455 8.328 3.503 6.09 3.495 6.07c-.06-.145.064-.223.2-.223h1.211c.162 0 .215.099.252.186.043.102.201.506.461.96.422.74.68 1.042.887 1.042a.24.24 0 0 0 .112-.03c.27-.15.22-1.114.208-1.314 0-.037-.001-.43-.14-.62-.099-.136-.268-.188-.37-.208a.44.44 0 0 1 .16-.135c.185-.093.52-.106.851-.106h.185c.36.005.453.028.583.06.264.064.27.234.247.817-.008.166-.015.353-.015.574l-.002.154c-.008.296-.018.633.192.772a.173.173 0 0 0 .091.026c.073 0 .292 0 .886-1.018.183-.328.342-.669.476-1.02.012-.02.047-.084.088-.11a.213.213 0 0 1 .1-.022h1.424c.156 0 .262.023.282.083.035.095-.006.385-.657 1.266l-.29.383c-.59.773-.59.812.037 1.399Z" />
  </symbol>
  <symbol id="youtube" xmlns="http://www.w3.org/2000/svg" fill="none">
    <path fill="currentColor"
      d="m6.667 10 3.46-2-3.46-2v4Zm7.706-5.22c.087.313.147.733.187 1.267.047.533.067.993.067 1.393l.04.56c0 1.46-.107 2.533-.294 3.22-.166.6-.553.987-1.153 1.153-.313.087-.887.147-1.767.187-.866.047-1.66.067-2.393.067l-1.06.04c-2.793 0-4.533-.107-5.22-.294-.6-.166-.987-.553-1.153-1.153-.087-.313-.147-.733-.187-1.267a16.039 16.039 0 0 1-.067-1.393L1.333 8c0-1.46.107-2.533.294-3.22.166-.6.553-.987 1.153-1.153.313-.087.887-.147 1.767-.187a44.43 44.43 0 0 1 2.393-.067L8 3.333c2.793 0 4.533.107 5.22.294.6.166.987.553 1.153 1.153Z" />
  </symbol>
  <symbol id="telegram" xmlns="http://www.w3.org/2000/svg" fill="none">
    <path fill="currentColor"
      d="M16 8A8 8 0 1 1-.001 8 8 8 0 0 1 16 8ZM8.287 5.906c-.778.324-2.334.994-4.666 2.01-.378.15-.577.298-.595.442-.03.243.275.339.69.47l.175.055c.408.133.958.288 1.243.294.26.006.549-.1.868-.32 2.179-1.471 3.304-2.214 3.374-2.23.05-.012.12-.026.166.016.047.041.042.12.037.141-.03.129-1.227 1.241-1.846 1.817-.193.18-.33.307-.358.336a8.161 8.161 0 0 1-.188.186c-.38.366-.664.64.015 1.088.327.216.589.393.85.571.284.194.568.387.936.629.093.06.183.125.27.187.331.236.63.448.997.414.214-.02.435-.22.547-.82.265-1.417.786-4.486.906-5.751.007-.105.003-.21-.013-.315a.337.337 0 0 0-.114-.217.526.526 0 0 0-.31-.093c-.3.005-.763.166-2.984 1.09Z" />
  </symbol>
  <symbol id="left" xmlns="http://www.w3.org/2000/svg" fill="none">
    <path fill="currentColor"
      d="m2.864 8 5.661-5.818a.5.5 0 1 0-.716-.697l-6 6.166a.5.5 0 0 0 0 .698l6 6.166a.5.5 0 1 0 .716-.697L2.864 8Z" />
  </symbol>
  <symbol id="right" xmlns="http://www.w3.org/2000/svg" fill="none">
    <path fill="currentColor"
      d="M13.136 8 7.475 2.182a.5.5 0 1 1 .716-.697l6 6.166a.5.5 0 0 1 0 .698l-6 6.166a.5.5 0 1 1-.716-.697L13.136 8Z" />
  </symbol>
</svg>
